<svg width="226" height="47" viewBox="0 0 226 47" fill="none" xmlns="http://www.w3.org/2000/svg">
<path d="M0.843164 35V34.5L1.74316 34.15C2.40983 33.8833 2.85983 33.55 3.09316 33.15C3.35983 32.75 3.49316 32.2167 3.49316 31.55V5.45C3.49316 4.75 3.35983 4.2 3.09316 3.8C2.85983 3.4 2.40983 3.08333 1.74316 2.85L0.843164 2.5V2H15.1932C19.2598 2 22.1932 2.75 23.9932 4.25C25.7932 5.71667 26.6932 7.58333 26.6932 9.85C26.6932 11.55 26.0265 13.1 24.6932 14.5C23.3932 15.8667 21.1432 16.8333 17.9432 17.4C21.6098 17.8 24.2932 18.7667 25.9932 20.3C27.6932 21.8 28.5432 23.6333 28.5432 25.8C28.5432 26.8667 28.3098 27.95 27.8432 29.05C27.3765 30.1167 26.5765 31.1 25.4432 32C24.3432 32.9 22.8265 33.6333 20.8932 34.2C18.9598 34.7333 16.5098 35 13.5432 35H0.843164ZM10.8932 17.35H13.0432C15.2765 17.35 16.8765 16.8333 17.8432 15.8C18.8432 14.7667 19.3432 12.9667 19.3432 10.4C19.3432 7.73333 18.8932 5.83333 17.9932 4.7C17.0932 3.56667 15.6265 3 13.5932 3H10.8932V17.35ZM10.8932 34H13.3932C15.8932 34 17.7432 33.3333 18.9432 32C20.1765 30.6667 20.7932 28.5833 20.7932 25.75C20.7932 23.0833 20.2098 21.1833 19.0432 20.05C17.8765 18.9167 15.9598 18.35 13.2932 18.35H10.8932V34ZM36.626 7.6C35.4926 7.6 34.526 7.25 33.726 6.55C32.9593 5.81667 32.576 4.9 32.576 3.8C32.576 2.66666 32.9593 1.75 33.726 1.05C34.526 0.349998 35.4926 -2.38419e-06 36.626 -2.38419e-06C37.7593 -2.38419e-06 38.7093 0.349998 39.476 1.05C40.2426 1.75 40.626 2.66666 40.626 3.8C40.626 4.9 40.2426 5.81667 39.476 6.55C38.7093 7.25 37.7593 7.6 36.626 7.6ZM30.726 35V34.5L31.426 34.3C32.0926 34.1 32.5426 33.8 32.776 33.4C33.0426 33 33.176 32.4667 33.176 31.8V16.15C33.176 15.45 33.0426 14.9333 32.776 14.6C32.5426 14.2333 32.0926 13.9833 31.426 13.85L30.726 13.7V13.2L39.876 10.25L40.376 10.75L40.226 17.85V31.85C40.226 32.5167 40.3426 33.05 40.576 33.45C40.8426 33.85 41.2926 34.15 41.926 34.35L42.426 34.5V35H30.726ZM44.6396 35V34.5L45.3396 34.3C46.5063 33.9667 47.0896 33.15 47.0896 31.85V16.2C47.0896 15.4667 46.973 14.9333 46.7396 14.6C46.5063 14.2333 46.0563 13.9833 45.3896 13.85L44.6396 13.65V13.15L53.1896 10.25L53.6896 10.75L54.0896 13.75C55.2563 12.7167 56.573 11.8667 58.0396 11.2C59.5063 10.5333 60.9563 10.2 62.3896 10.2C64.5896 10.2 66.273 10.8 67.4396 12C68.6396 13.2 69.2396 15.0333 69.2396 17.5V31.9C69.2396 33.2 69.873 34.0167 71.1396 34.35L71.5896 34.5V35H59.7896V34.5L60.4396 34.3C61.6063 33.9333 62.1896 33.1167 62.1896 31.85V15.9C62.1896 13.7667 61.123 12.7 58.9896 12.7C57.523 12.7 55.923 13.4333 54.1896 14.9V31.9C54.1896 33.2 54.773 34.0167 55.9396 34.35L56.3896 34.5V35H44.6396ZM84.4459 26.35C82.1459 26.35 80.1959 25.9667 78.5959 25.2V26.9C78.5959 27.9333 79.1126 28.55 80.1459 28.75L89.5459 30.5C91.1126 30.8 92.5292 31.2 93.7959 31.7C95.0626 32.1667 96.0792 32.85 96.8459 33.75C97.6126 34.6167 97.9959 35.8167 97.9959 37.35C97.9959 38.9833 97.4626 40.4833 96.3959 41.85C95.3292 43.25 93.7459 44.3667 91.6459 45.2C89.5792 46.0667 86.9959 46.5 83.8959 46.5C81.2292 46.5 79.1126 46.2167 77.5459 45.65C75.9792 45.1167 74.8626 44.4167 74.1959 43.55C73.5626 42.6833 73.2459 41.7667 73.2459 40.8C73.2459 39.6 73.6459 38.3833 74.4459 37.15C75.2792 35.95 76.2959 34.9833 77.4959 34.25C76.4626 33.85 75.7126 33.3333 75.2459 32.7C74.7792 32.0667 74.5459 31.3833 74.5459 30.65C74.5459 29.9833 74.7126 29.3667 75.0459 28.8C75.4126 28.2 75.8459 27.6 76.3459 27L77.9959 24.9C75.5626 23.5 74.3459 21.3 74.3459 18.3C74.3459 15.9 75.1959 13.95 76.8959 12.45C78.6292 10.95 81.1626 10.2 84.4959 10.2C86.1959 10.2 87.6792 10.4 88.9459 10.8C90.2459 11.2 91.3126 11.7667 92.1459 12.5C93.2126 12.3333 94.2126 12.0667 95.1459 11.7C96.1126 11.3 96.9792 10.7667 97.7459 10.1L98.4459 10.6V13.15H92.7959C93.9959 14.4833 94.5959 16.2 94.5959 18.3C94.5959 20.6333 93.7292 22.5667 91.9959 24.1C90.2959 25.6 87.7792 26.35 84.4459 26.35ZM84.3959 25.35C85.7292 25.35 86.6959 24.8 87.2959 23.7C87.9292 22.6 88.2459 20.7667 88.2459 18.2C88.2459 15.6333 87.9292 13.8333 87.2959 12.8C86.6959 11.7333 85.7626 11.2 84.4959 11.2C83.2626 11.2 82.3292 11.75 81.6959 12.85C81.0626 13.9167 80.7459 15.7333 80.7459 18.3C80.7459 20.8667 81.0292 22.6833 81.5959 23.75C82.1959 24.8167 83.1292 25.35 84.3959 25.35ZM76.9459 39.2C76.9459 41.1667 77.5459 42.65 78.7459 43.65C79.9792 44.65 81.9126 45.15 84.5459 45.15C87.3126 45.15 89.3959 44.7 90.7959 43.8C92.1959 42.9 92.8959 41.6333 92.8959 40C92.8959 39.0667 92.5459 38.3167 91.8459 37.75C91.1792 37.1833 90.0292 36.75 88.3959 36.45L79.3459 34.75C79.0792 34.6833 78.8126 34.6167 78.5459 34.55C78.0792 35.2167 77.6959 35.9667 77.3959 36.8C77.0959 37.6667 76.9459 38.4667 76.9459 39.2ZM111.747 35V34.5L113.397 34C113.997 33.8333 114.43 33.5167 114.697 33.05C114.964 32.55 115.097 31.9667 115.097 31.3V7.25C114.73 6.45 114.43 5.85 114.197 5.45C113.997 5.05 113.764 4.71667 113.497 4.45C113.23 4.15 112.864 3.78333 112.397 3.35L111.547 2.5V2H120.397L136.997 24.65V5.8C136.997 5.13333 136.88 4.53333 136.647 4C136.447 3.46667 136.014 3.11666 135.347 2.95L133.697 2.5V2H140.847V2.5L139.497 2.95C138.897 3.15 138.53 3.5 138.397 4C138.264 4.5 138.197 5.08333 138.197 5.75V35.15H135.397L116.297 8.9V31.3C116.297 31.9667 116.397 32.5333 116.597 33C116.797 33.4667 117.214 33.8 117.847 34L119.347 34.5V35H111.747ZM154.602 10.2C156.768 10.2 158.618 10.65 160.152 11.55C161.685 12.4167 162.852 13.6167 163.652 15.15C164.485 16.65 164.902 18.3667 164.902 20.3C164.902 20.6667 164.885 21.05 164.852 21.45C164.818 21.8167 164.752 22.15 164.652 22.45H149.752C149.785 26.05 150.418 28.65 151.652 30.25C152.918 31.8167 154.785 32.6 157.252 32.6C158.918 32.6 160.268 32.3333 161.302 31.8C162.335 31.2667 163.302 30.4833 164.202 29.45L164.702 29.9C163.668 31.7333 162.285 33.1667 160.552 34.2C158.852 35.2333 156.802 35.75 154.402 35.75C152.035 35.75 149.935 35.25 148.102 34.25C146.268 33.2167 144.835 31.75 143.802 29.85C142.768 27.95 142.252 25.6833 142.252 23.05C142.252 20.3167 142.852 18 144.052 16.1C145.252 14.1667 146.785 12.7 148.652 11.7C150.552 10.7 152.535 10.2 154.602 10.2ZM154.452 11.2C153.485 11.2 152.652 11.5 151.952 12.1C151.285 12.6667 150.752 13.7 150.352 15.2C149.985 16.6667 149.785 18.75 149.752 21.45H158.302C158.635 17.8167 158.502 15.2 157.902 13.6C157.302 12 156.152 11.2 154.452 11.2ZM177.448 35.15L169.748 14C169.382 12.9333 168.648 12.1833 167.548 11.75L166.698 11.45V10.95H178.948V11.45L178.198 11.65C176.898 12.05 176.465 12.85 176.898 14.05L181.548 28.2L185.698 17.2L184.748 14.35C184.515 13.6167 184.265 13.0667 183.998 12.7C183.765 12.3 183.448 12.0167 183.048 11.85L182.198 11.45V10.95H192.548V11.45L191.848 11.75C191.348 11.95 191.048 12.2167 190.948 12.55C190.848 12.8833 190.915 13.3833 191.148 14.05L195.748 27.95L200.498 14.15C200.965 12.8833 200.715 12.0833 199.748 11.75L198.648 11.45V10.95H204.648V11.45L203.448 11.8C202.882 11.9667 202.465 12.2333 202.198 12.6C201.965 12.9333 201.748 13.4 201.548 14L194.348 35.15H191.798L186.248 18.8L180.348 35.15H177.448ZM214.129 35.75C212.496 35.75 211.029 35.55 209.729 35.15C208.429 34.7833 207.229 34.3167 206.129 33.75L206.179 27.8H206.679L208.379 30.8C209.113 32.1333 209.913 33.1333 210.779 33.8C211.679 34.4333 212.813 34.75 214.179 34.75C215.779 34.75 217.063 34.4 218.029 33.7C219.029 32.9667 219.529 32 219.529 30.8C219.529 29.7 219.179 28.8 218.479 28.1C217.779 27.4 216.479 26.7667 214.579 26.2L212.479 25.55C210.446 24.95 208.846 24.0167 207.679 22.75C206.513 21.4833 205.929 19.9333 205.929 18.1C205.929 15.9 206.796 14.0333 208.529 12.5C210.263 10.9667 212.746 10.2 215.979 10.2C217.279 10.2 218.496 10.35 219.629 10.65C220.796 10.9167 221.913 11.3333 222.979 11.9L222.679 17.3H222.179L220.429 14.2C219.796 13.1 219.163 12.3333 218.529 11.9C217.929 11.4333 217.013 11.2 215.779 11.2C214.646 11.2 213.579 11.5167 212.579 12.15C211.579 12.7833 211.079 13.6833 211.079 14.85C211.079 15.9833 211.496 16.8833 212.329 17.55C213.196 18.2167 214.463 18.8333 216.129 19.4L218.379 20.05C220.779 20.7833 222.496 21.8 223.529 23.1C224.563 24.3667 225.079 25.9 225.079 27.7C225.079 30.1333 224.113 32.0833 222.179 33.55C220.279 35.0167 217.596 35.75 214.129 35.75Z" fill="#316CF4"/>
</svg>
